<svg preserveAspectRatio="xMidYMid meet" data-bbox="0 -0.01 6266.3 1450.08" viewBox="0 -0.01 6266.3 1450.08" height="100" width="432" xmlns="http://www.w3.org/2000/svg" shape-rendering="geometricPrecision" text-rendering="geometricPrecision" image-rendering="optimizeQuality" fill-rule="evenodd" clip-rule="evenodd" data-type="color" role="presentation" aria-hidden="true" aria-label="">
    <g>
        <path fill="#9463d2" d="M4035.49 508.1h117.75v919.46h-117.75z" data-color="1"></path>
        <path d="m6135.28 1122.81 99.85 52.52c-32.9 63.78-70.7 115.43-113.7 154.69-43 38.96-91.2 68.97-144.87 89.46-53.97 20.49-114.57 30.59-182.39 30.59-150.64 0-268.1-49.06-352.95-147.18s-127.27-208.94-127.27-332.46c0-116.3 36.07-220.19 107.93-311.1 90.91-115.73 212.98-173.73 365.65-173.73 157.28 0 283.11 59.45 376.9 178.06 66.66 83.69 100.72 188.16 101.87 313.7h-831.14c2.31 106.49 36.65 193.64 102.74 261.46 66.38 68.11 148.33 102.16 245.59 102.16 47.04 0 92.92-8.08 137.37-24.24 44.44-16.16 82.25-37.52 113.42-64.36s64.93-69.84 101.01-129.57zm1.15-247.61c-15.87-63.2-38.96-113.42-69.26-151.22-30.59-37.81-70.7-68.11-120.63-91.19-49.93-23.09-102.45-34.63-157.28-34.63-90.9 0-168.82 28.86-234.04 86.87-47.91 42.42-83.69 105.63-108.22 190.18h689.44z" fill="#9463d2" data-color="1"></path>
        <path fill="#9463d2" d="M4312.83 508.1h123.8l309.66 671.27 307.35-671.27h126.69l-420.77 919.46h-22.5z" data-color="1"></path>
        <path d="M3568.27 165.26h117.74V508.1h187.01v102.16h-187.01v817.29h-117.74z" fill="#9463d2" data-color="1"></path>
        <path fill="#9463d2" d="M3102.19 508.1h117.75v919.46h-117.75z" data-color="1"></path>
        <path d="M3160.78 130.63c26.84 0 49.64 9.52 68.68 28.86 19.05 19.05 28.57 42.42 28.57 69.26 0 26.55-9.52 49.64-28.57 68.69-19.05 19.34-41.84 28.86-68.68 28.86-26.55 0-49.06-9.52-68.11-28.86-19.05-19.05-28.57-42.13-28.57-68.69 0-26.84 9.52-50.21 28.57-69.26 19.05-19.34 41.56-28.86 68.11-28.86" fill="#9463d2" data-color="1"></path>
        <path d="M2051.43 508.1h117.75v429.14c0 104.76 5.77 176.62 17.02 216.16 16.74 56.27 49.35 100.72 96.97 133.33s104.76 49.06 170.85 49.06 122.07-15.87 168.25-47.62c45.89-32.03 77.92-73.59 95.24-125.54 11.83-35.5 17.89-110.53 17.89-225.39V508.1h121.21v450.78c0 126.69-14.72 221.93-44.44 285.99-29.44 64.36-74.17 114.57-133.62 150.64-59.45 36.36-133.91 54.54-223.66 54.54s-164.5-18.18-224.52-54.54c-60.03-36.07-105.05-86.86-134.48-151.8-29.73-64.93-44.44-162.77-44.44-293.21V508.09z" fill="#9463d2" data-color="1"></path>
        <path d="M1582.47 165.26h117.75V508.1h187.01v102.16h-187.01v817.29h-117.75z" fill="#9463d2" data-color="1"></path>
        <path d="M424.36 508.1h117.75v164.79c47.62-62.91 100.14-109.95 157.57-140.83 57.72-30.88 120.34-46.46 188.16-46.46 68.97 0 130.16 17.32 183.55 52.23 53.39 34.92 92.92 81.96 118.32 141.12 25.4 58.87 38.1 150.93 38.1 275.89v472.71h-117.75V989.47c0-105.62-4.62-176.33-13.56-211.82-14.43-60.6-40.98-106.2-79.94-137.08-38.96-30.59-89.75-45.89-152.38-45.89-71.86 0-136.22 23.67-192.78 71-56.85 47.04-94.37 105.62-112.26 175.46-11.26 45.6-17.03 128.71-17.03 249.63v336.78H424.36z" fill="#9463d2" data-color="1"></path>
        <path d="m5231.53 338.21 34.73 18.32c-11.37 22.44-24.56 40.46-39.46 54.25q-22.5 20.685-50.43 31.41c-18.72 7.15-39.86 10.77-63.42 10.77-52.34 0-93.21-17.11-122.7-51.44-29.49-34.32-44.19-73.08-44.19-116.36 0-40.67 12.48-77 37.45-108.81 31.6-40.47 73.98-60.8 127.03-60.8 54.66 0 98.34 20.84 130.96 62.31 23.25 29.29 35.03 65.83 35.43 109.62h-288.39c.71 37.45 12.68 68.05 35.63 91.9 23.05 23.85 51.44 35.83 85.26 35.83 16.31 0 32.21-2.82 47.61-8.55 15.4-5.74 28.59-13.29 39.36-22.75 10.77-9.36 22.55-24.66 35.13-45.7m0-86.37c-5.54-22.04-13.59-39.66-24.06-52.74-10.57-13.19-24.46-23.85-41.77-31.91-17.32-8.05-35.43-12.08-54.56-12.08-31.41 0-58.49 10.17-81.03 30.4-16.51 14.7-28.99 36.84-37.44 66.33z" fill="#9463d2" data-color="1"></path>
        <path d="M4764.07 123.81h42.17v46.91c12.58-18.42 25.87-32.21 39.76-41.37 13.99-9.16 28.49-13.79 43.69-13.79 11.37 0 23.55 3.73 36.54 10.97l-21.54 34.83c-8.66-3.83-15.91-5.64-21.84-5.64-13.69 0-26.98 5.64-39.76 16.91-12.78 11.37-22.55 28.89-29.19 52.65-5.14 18.32-7.65 55.26-7.65 110.93v108.51h-42.17v-320.9z" fill="#9463d2" data-color="1"></path>
        <path d="M4686.76 123.81v320.9h-40.67v-55.16c-17.31 21.04-36.74 36.84-58.28 47.51-21.54 10.57-45.1 15.9-70.66 15.9-45.4 0-84.15-16.51-116.36-49.42-32.11-32.92-48.22-72.98-48.22-120.19 0-46.2 16.31-85.66 48.72-118.47s71.47-49.32 117.07-49.32c26.37 0 50.13 5.64 71.47 16.81 21.34 11.27 40.06 28.08 56.27 50.43v-58.99h40.67zm-165.18 31.61c-22.95 0-44.19 5.64-63.71 16.91-19.43 11.38-34.93 27.18-46.41 47.71-11.47 20.44-17.21 42.08-17.21 64.83 0 22.65 5.74 44.29 17.31 64.93 11.68 20.63 27.18 36.64 46.81 48.21 19.53 11.48 40.56 17.21 62.91 17.21 22.65 0 44.09-5.74 64.32-17.11 20.23-11.38 35.84-26.78 46.71-46.3 10.97-19.43 16.41-41.37 16.41-65.73 0-37.14-12.28-68.25-36.74-93.21s-54.56-37.45-90.39-37.45z" fill="#9463d2" data-color="1"></path>
        <path d="m4286.84 91.4-34.22 26.27c-18.82-24.56-41.47-43.18-67.95-55.87-26.47-12.68-55.46-19.03-87.17-19.03-34.63 0-66.64 8.25-96.13 24.86s-52.34 38.95-68.55 66.94c-16.21 28.08-24.36 59.59-24.36 94.52 0 52.95 18.12 97.04 54.46 132.47 36.24 35.33 82.04 53.05 137.3 53.05 60.7 0 111.53-23.75 152.4-71.37l34.22 25.97c-21.64 27.48-48.62 48.82-80.93 63.82-32.31 15.1-68.45 22.55-108.41 22.55-75.9 0-135.69-25.26-179.57-75.8-36.74-42.58-55.16-94.12-55.16-154.51 0-63.52 22.24-116.87 66.84-160.25C3974.1 21.64 4029.87-.01 4096.9-.01c40.57 0 77.11 8.05 109.72 24.06s59.39 38.45 80.22 67.34z" fill="#9463d2" data-color="1"></path>
        <path fill="#9463d2" d="M38.1 508.1h117.74v919.46H38.1z" data-color="1"></path>
        <path d="M96.68 130.63c26.84 0 49.64 9.52 68.68 28.86 19.05 19.05 28.57 42.42 28.57 69.26 0 26.55-9.52 49.64-28.57 68.69-19.05 19.34-41.84 28.86-68.68 28.86-26.55 0-49.06-9.52-68.11-28.86C9.52 278.39 0 255.31 0 228.75c0-26.84 9.52-50.21 28.57-69.26 19.05-19.34 41.56-28.86 68.11-28.86" fill="#9463d2" data-color="1"></path>
        <path d="M4091.23 130.63c26.84 0 49.64 9.52 68.68 28.86 19.05 19.05 28.57 42.42 28.57 69.26 0 26.55-9.52 49.64-28.57 68.69-19.05 19.34-41.84 28.86-68.68 28.86-26.55 0-49.06-9.52-68.11-28.86-19.05-19.05-28.57-42.13-28.57-68.69 0-26.84 9.52-50.21 28.57-69.26 19.05-19.34 41.56-28.86 68.11-28.86" fill="#9463d2" data-color="1"></path>
        <path d="M5377.16 64c0 10.02-2.49 19.33-7.45 27.9-4.96 8.59-11.76 15.39-20.39 20.4-8.66 5.01-17.92 7.5-27.79 7.5s-19.13-2.49-27.77-7.48c-8.66-4.98-15.46-11.78-20.47-20.37q-7.47-12.915-7.47-27.66c0-9.92 2.49-19.24 7.47-27.92 5.01-8.71 11.81-15.53 20.42-20.49 8.64-4.96 17.9-7.43 27.82-7.43s19.18 2.47 27.75 7.4c8.59 4.94 15.36 11.76 20.37 20.44 5.01 8.69 7.52 17.93 7.52 27.7zm-7.72.07c0-8.49-2.15-16.5-6.46-23.98-4.31-7.5-10.13-13.4-17.51-17.69-7.35-4.31-15.29-6.46-23.8-6.46-8.56 0-16.57 2.15-24.07 6.46-7.47 4.28-13.35 10.19-17.63 17.69-4.28 7.48-6.41 15.53-6.41 24.12 0 8.57 2.13 16.55 6.41 23.95 4.28 7.43 10.16 13.28 17.68 17.59 7.5 4.31 15.51 6.46 24.02 6.46 8.47 0 16.4-2.18 23.8-6.48 7.42-4.33 13.28-10.19 17.54-17.59 4.28-7.4 6.44-15.41 6.44-24.07zm-71.1-32.45v64.07h10.14V68.98h16.09c4.01 0 6.7.24 8.06.77 1.33.51 2.37 1.36 3.12 2.54.73 1.19 1.18 3.22 1.38 6.1l.48 7.86c.29 3.65.78 6.8 1.5 9.44h11.32l-1.04-1.69c-1.52-2.27-2.27-5.1-2.27-8.52v-7.23c0-4.52-.51-7.74-1.5-9.61-.99-1.86-2.93-3.51-5.81-4.91 3.17-2.08 5.22-3.99 6.17-5.76 1.23-2.35 1.84-5.15 1.84-8.42 0-3.78-.87-7.09-2.59-9.92-1.72-2.85-3.94-4.89-6.7-6.14-2.73-1.26-7.23-1.86-13.45-1.86h-26.73zm10.14 9.2v19.02h15.72c4.79 0 8.03-.56 9.72-1.64 2.49-1.55 3.75-4.21 3.75-7.94 0-3.27-.9-5.64-2.68-7.16-1.79-1.5-5.18-2.28-10.14-2.28h-16.38z" fill="#9463d2" data-color="1"></path>
    </g>
</svg>
